<svg version="1.1" id="Layer_1" xmlns="http://www.w3.org/2000/svg" xmlns:xlink="http://www.w3.org/1999/xlink" x="0px" y="0px"
	 viewBox="0 0 262.3 43.3" enable-background="new 0 0 262.3 43.3" xml:space="preserve">
<path fill="#FFFFFF" d="M64.2,17.1c-1.9,0-3.5,1.6-3.5,3.5v11.5c0,2.2-1.8,3.9-4,3.9c-2.2,0-3.9-1.7-3.9-3.9V20.7
	c0-2-1.6-3.5-3.5-3.5c-1.9,0-3.5,1.6-3.5,3.5v11.5c0,6.1,4.9,11,11,11c6.1,0,11.1-4.9,11.1-11V20.7C67.8,18.8,66.1,17.1,64.2,17.1"
	/>
<path fill="#FFFFFF" d="M82.6,17.1c-3.4,0-6.5,1.4-9,4c-2.3,2.6-3.6,5.7-3.6,9.1c0,3.5,1.3,6.8,3.6,9.1c2.5,2.6,5.6,4,9,4
	c3.4,0,6.6-1.5,8.7-3.9c2.4-2.3,3.7-5.6,3.7-9.2c0-3.5-1.2-6.5-3.6-9.1C89.1,18.6,85.9,17.1,82.6,17.1 M82.6,36
	c-1.5,0-2.9-0.5-3.9-1.5c-1-1.2-1.5-2.7-1.5-4.4c0-1.7,0.5-3.2,1.4-4.3c0.8-0.7,2.1-1.5,3.9-1.5c1.6,0,2.9,0.8,3.7,1.5
	c1,1.1,1.6,2.6,1.6,4.3c0,1.8-0.5,3.2-1.6,4.4C85.3,35.5,84,36,82.6,36"/>
<path fill="#FFFFFF" d="M106.1,24.4c2,0,3.7-1.7,3.7-3.6c0-2-1.7-3.6-3.7-3.6h-0.2v-6c0-2-1.6-3.6-3.6-3.6c-2.1,0-3.7,1.6-3.7,3.6v6
	h-0.4c-2,0-3.6,1.6-3.6,3.6c0,2,1.6,3.6,3.6,3.6h0.4v12.4c0,3.5,2.8,6.3,6.3,6.3c2,0,3.6-1.6,3.6-3.6c0-1.7-1.1-3.1-2.6-3.6V24.4
	H106.1z"/>
<path fill="#FFFFFF" d="M122.1,17.1c-7,0-12.7,5.8-12.7,13c0.1,7.2,5.6,12.9,12.7,13h0c3.7,0,6.8-1.1,9.3-3.4c0.6-0.6,0.9-1.3,1-2.1
	c0-1-0.4-2-0.9-2.4c-0.5-0.6-1.4-1-2.4-1c-1,0-2,0.4-2.6,1c-0.9,0.7-2.7,1.1-4.2,1c-1.5-0.1-3.1-0.9-4-1.9c-0.4-0.4-0.7-0.9-1-1.4
	h13.9c1.8,0,3.2-1.1,3.5-2.7c0.1-0.2,0.1-0.4,0.1-0.7l0-0.3C134.2,22.2,128.9,17.1,122.1,17.1 M127.6,26.8H117
	c0.7-1.4,2.4-2.9,5.1-3.1C124.8,23.9,126.7,25.4,127.6,26.8"/>
<path fill="#FFFFFF" d="M149.7,17.1c-1.9,0-3.8,0.4-5.4,1.3v-7.3c0-2-1.6-3.6-3.6-3.6c-2,0-3.6,1.6-3.6,3.6v28.4
	c0,2,1.6,3.6,3.6,3.6c1.3,0,2.4-0.6,3-1.6c1.9,1,4,1.6,6.1,1.6c7,0,12.7-5.8,12.7-13C162.4,23,156.7,17.1,149.7,17.1 M153.5,34.2
	c-1,1.1-2.4,1.7-3.8,1.7c-1.5,0-2.7-0.6-3.8-1.7c-1-1-1.6-2.5-1.6-4c0-1.6,0.6-3.1,1.6-4.2c1.1-1.1,2.3-1.7,3.8-1.7
	c1.4,0,2.8,0.6,3.8,1.7c1,1.1,1.6,2.5,1.6,4.1C155.1,31.7,154.5,33.2,153.5,34.2"/>
<path fill="#FFFFFF" d="M177.2,17.1c-3.4,0-6.5,1.4-9,4c-2.3,2.6-3.6,5.7-3.6,9.1c0,3.5,1.3,6.8,3.6,9.1c2.5,2.6,5.6,4,9,4
	c3.4,0,6.6-1.5,8.7-3.9c2.4-2.3,3.7-5.6,3.7-9.2c0-3.5-1.2-6.5-3.6-9.1C183.8,18.6,180.6,17.1,177.2,17.1 M177.2,36
	c-1.5,0-2.9-0.5-3.9-1.5c-1-1.2-1.5-2.7-1.5-4.4c0-1.7,0.5-3.2,1.4-4.3c0.8-0.7,2.1-1.5,3.9-1.5c1.6,0,2.9,0.8,3.7,1.5
	c1,1.1,1.6,2.6,1.6,4.3c0,1.8-0.5,3.2-1.6,4.4C180,35.5,178.7,36,177.2,36"/>
<path fill="#FFFFFF" d="M213.2,17.1c-1.2,0-2.3,0.6-2.9,1.6c-1.9-1.1-3.9-1.6-5.9-1.6c-3.4,0-6.5,1.4-8.9,3.9
	c-2.3,2.4-3.5,5.6-3.5,9.1c0,3.4,1.3,6.7,3.5,9.1c2.4,2.5,5.5,3.8,8.9,3.8c2.1,0,4.1-0.6,6-1.6c0.7,1,1.7,1.6,2.9,1.6
	c2,0,3.5-1.6,3.5-3.5V20.7C216.7,18.7,215.1,17.1,213.2,17.1 M204.3,36c-1.5,0-2.8-0.6-3.7-1.5c-1-1.1-1.6-2.6-1.6-4.3
	c0-1.7,0.5-3.2,1.6-4.3c0.9-1,2.2-1.6,3.7-1.6c1.4,0,2.8,0.6,3.7,1.7c1,1.1,1.6,2.6,1.6,4.3c0,1.6-0.6,3.1-1.6,4.3
	C207.1,35.4,205.7,36,204.3,36"/>
<path fill="#FFFFFF" d="M233.6,17.2l-0.2,0c-2.1,0-4.3,0.7-6.2,1.9c-0.6-1.1-1.8-1.9-3.3-1.9c-2,0-3.5,1.6-3.5,3.5v18.9
	c0,2,1.6,3.5,3.5,3.5c2,0,3.6-1.6,3.6-3.5v-9l0,0c0.3-0.7,0.8-2.3,1.8-3.6c0.6-0.9,1.2-1.5,2-2c0.6-0.5,1.4-0.7,2.3-0.7
	c2,0,3.5-1.6,3.5-3.5C237.1,18.7,235.6,17.2,233.6,17.2"/>
<path fill="#FFFFFF" d="M258.7,7.5c-2,0-3.6,1.6-3.6,3.6v7.3c-1.7-0.8-3.5-1.3-5.4-1.3c-7,0-12.7,5.9-12.7,13c0,7.1,5.7,13,12.7,13
	c2.1,0,4.2-0.6,6.1-1.6c0.6,1,1.8,1.6,3,1.6c2,0,3.6-1.6,3.6-3.6V11.1C262.3,9.1,260.7,7.5,258.7,7.5 M249.7,35.9
	c-1.4,0-2.8-0.6-3.8-1.7c-1-1-1.6-2.5-1.6-4c0-1.6,0.6-3.1,1.6-4.2c1-1.1,2.4-1.7,3.8-1.7c1.5,0,2.7,0.6,3.8,1.7
	c1,1,1.6,2.5,1.6,4.1c0,1.5-0.6,3-1.6,4.1C252.4,35.3,251.1,35.9,249.7,35.9"/>
<path fill="#FFFFFF" d="M39.9,32c1.9-3.2,3-6.8,3-10.7C42.9,9.5,33.3,0,21.4,0C9.6,0,0,9.5,0,21.2c0,11.7,9.6,21.2,21.4,21.2
	c3.8,0,7.4-1,10.5-2.7l8.1,2.2c1.5,0.4,2.4-0.5,2-2L39.9,32z M34,33.9l-5.3-1.4c-2.1,1.3-4.6,2.1-7.3,2.1c-7.4,0-13.5-6-13.5-13.4
	c0-7.4,6-13.4,13.5-13.4c7.4,0,13.5,6,13.5,13.4c0,2.7-0.8,5.3-2.3,7.4L34,33.9z"/>
</svg>
