<?xml version="1.0" encoding="utf-8"?>
<!-- Generator: Adobe Illustrator 19.2.1, SVG Export Plug-In . SVG Version: 6.00 Build 0)  -->
<svg version="1.1" id="Layer_1" xmlns="http://www.w3.org/2000/svg" xmlns:xlink="http://www.w3.org/1999/xlink" x="0px" y="0px"
	 viewBox="0 0 42.9 42.4" style="enable-background:new 0 0 42.9 42.4;" xml:space="preserve">
<style type="text/css">
	.st0{fill:#FFFFFF;}
</style>
<path class="st0" d="M39.9,32c1.9-3.2,3-6.8,3-10.7C42.9,9.5,33.3,0,21.4,0C9.6,0,0,9.5,0,21.2s9.6,21.2,21.4,21.2
	c3.8,0,7.4-1,10.5-2.7l8.1,2.2c1.5,0.4,2.4-0.5,2-2L39.9,32z M34,33.9l-5.3-1.4c-2.1,1.3-4.6,2.1-7.3,2.1c-7.4,0-13.5-6-13.5-13.4
	s6-13.4,13.5-13.4c7.4,0,13.5,6,13.5,13.4c0,2.7-0.8,5.3-2.3,7.4L34,33.9z"/>
</svg>
